# xmcd
#
# Track frame offsets:
#	150
#	20811
#	40353
#	59061
#	76290
#	94865
#	118594
#	143358
#	158880
#	176773
#	199119
#
# Disc length: 2821 seconds
#
# Revision: 0
# Processed by: cddbd v1.5.2PL0 Copyright (c) Steve Scherf et al.
# Submitted via: EasyCDDAExtractor 8.2.3.1
#
DISCID=960b030b
DTITLE=Bill Perry - Don't Know Nothin' About Love
DYEAR=2006
DGENRE=Blues
TTITLE0=Let Me Love You
TTITLE1=My Baby Loves To Dance
TTITLE2=Hello Josephine
TTITLE3=I Don't Know Nothin' Bout Love
TTITLE4=Ball Of Confusion
TTITLE5=Leavin' Home
TTITLE6=Down In New Orleans
TTITLE7=She's A Burglar
TTITLE8=Accuse Me Of Lyin'
TTITLE9=Can't Afford To Die
TTITLE10=Waitin' For My Luck To Change
EXTD=
EXTT0=
EXTT1=
EXTT2=
EXTT3=
EXTT4=
EXTT5=
EXTT6=
EXTT7=
EXTT8=
EXTT9=
EXTT10=
PLAYORDER=
